%TF.GenerationSoftware,KiCad,Pcbnew,10.0.4-10.0.4~ubuntu24.04.1*%
%TF.CreationDate,2026-07-14T05:42:23+05:30*%
%TF.ProjectId,board,626f6172-642e-46b6-9963-61645f706362,rev?*%
%TF.SameCoordinates,Original*%
%TF.FileFunction,AssemblyDrawing,Top*%
%FSLAX46Y46*%
G04 Gerber Fmt 4.6, Leading zero omitted, Abs format (unit mm)*
G04 Created by KiCad (PCBNEW 10.0.4-10.0.4~ubuntu24.04.1) date 2026-07-14 05:42:23*
%MOMM*%
%LPD*%
G01*
G04 APERTURE LIST*
%ADD10C,0.150000*%
G04 APERTURE END LIST*
D10*
X4166666Y-12654819D02*
X4166666Y-13369104D01*
X4166666Y-13369104D02*
X4119047Y-13511961D01*
X4119047Y-13511961D02*
X4023809Y-13607200D01*
X4023809Y-13607200D02*
X3880952Y-13654819D01*
X3880952Y-13654819D02*
X3785714Y-13654819D01*
X5166666Y-13654819D02*
X4595238Y-13654819D01*
X4880952Y-13654819D02*
X4880952Y-12654819D01*
X4880952Y-12654819D02*
X4785714Y-12797676D01*
X4785714Y-12797676D02*
X4690476Y-12892914D01*
X4690476Y-12892914D02*
X4595238Y-12940533D01*
X8333333Y-16054819D02*
X8000000Y-15578628D01*
X7761905Y-16054819D02*
X7761905Y-15054819D01*
X7761905Y-15054819D02*
X8142857Y-15054819D01*
X8142857Y-15054819D02*
X8238095Y-15102438D01*
X8238095Y-15102438D02*
X8285714Y-15150057D01*
X8285714Y-15150057D02*
X8333333Y-15245295D01*
X8333333Y-15245295D02*
X8333333Y-15388152D01*
X8333333Y-15388152D02*
X8285714Y-15483390D01*
X8285714Y-15483390D02*
X8238095Y-15531009D01*
X8238095Y-15531009D02*
X8142857Y-15578628D01*
X8142857Y-15578628D02*
X7761905Y-15578628D01*
X9285714Y-16054819D02*
X8714286Y-16054819D01*
X9000000Y-16054819D02*
X9000000Y-15054819D01*
X9000000Y-15054819D02*
X8904762Y-15197676D01*
X8904762Y-15197676D02*
X8809524Y-15292914D01*
X8809524Y-15292914D02*
X8714286Y-15340533D01*
X8333333Y-18054819D02*
X8000000Y-17578628D01*
X7761905Y-18054819D02*
X7761905Y-17054819D01*
X7761905Y-17054819D02*
X8142857Y-17054819D01*
X8142857Y-17054819D02*
X8238095Y-17102438D01*
X8238095Y-17102438D02*
X8285714Y-17150057D01*
X8285714Y-17150057D02*
X8333333Y-17245295D01*
X8333333Y-17245295D02*
X8333333Y-17388152D01*
X8333333Y-17388152D02*
X8285714Y-17483390D01*
X8285714Y-17483390D02*
X8238095Y-17531009D01*
X8238095Y-17531009D02*
X8142857Y-17578628D01*
X8142857Y-17578628D02*
X7761905Y-17578628D01*
X8714286Y-17150057D02*
X8761905Y-17102438D01*
X8761905Y-17102438D02*
X8857143Y-17054819D01*
X8857143Y-17054819D02*
X9095238Y-17054819D01*
X9095238Y-17054819D02*
X9190476Y-17102438D01*
X9190476Y-17102438D02*
X9238095Y-17150057D01*
X9238095Y-17150057D02*
X9285714Y-17245295D01*
X9285714Y-17245295D02*
X9285714Y-17340533D01*
X9285714Y-17340533D02*
X9238095Y-17483390D01*
X9238095Y-17483390D02*
X8666667Y-18054819D01*
X8666667Y-18054819D02*
X9285714Y-18054819D01*
X12333333Y-9559580D02*
X12285714Y-9607200D01*
X12285714Y-9607200D02*
X12142857Y-9654819D01*
X12142857Y-9654819D02*
X12047619Y-9654819D01*
X12047619Y-9654819D02*
X11904762Y-9607200D01*
X11904762Y-9607200D02*
X11809524Y-9511961D01*
X11809524Y-9511961D02*
X11761905Y-9416723D01*
X11761905Y-9416723D02*
X11714286Y-9226247D01*
X11714286Y-9226247D02*
X11714286Y-9083390D01*
X11714286Y-9083390D02*
X11761905Y-8892914D01*
X11761905Y-8892914D02*
X11809524Y-8797676D01*
X11809524Y-8797676D02*
X11904762Y-8702438D01*
X11904762Y-8702438D02*
X12047619Y-8654819D01*
X12047619Y-8654819D02*
X12142857Y-8654819D01*
X12142857Y-8654819D02*
X12285714Y-8702438D01*
X12285714Y-8702438D02*
X12333333Y-8750057D01*
X13285714Y-9654819D02*
X12714286Y-9654819D01*
X13000000Y-9654819D02*
X13000000Y-8654819D01*
X13000000Y-8654819D02*
X12904762Y-8797676D01*
X12904762Y-8797676D02*
X12809524Y-8892914D01*
X12809524Y-8892914D02*
X12714286Y-8940533D01*
X16238095Y-12654819D02*
X16238095Y-13464342D01*
X16238095Y-13464342D02*
X16285714Y-13559580D01*
X16285714Y-13559580D02*
X16333333Y-13607200D01*
X16333333Y-13607200D02*
X16428571Y-13654819D01*
X16428571Y-13654819D02*
X16619047Y-13654819D01*
X16619047Y-13654819D02*
X16714285Y-13607200D01*
X16714285Y-13607200D02*
X16761904Y-13559580D01*
X16761904Y-13559580D02*
X16809523Y-13464342D01*
X16809523Y-13464342D02*
X16809523Y-12654819D01*
X17809523Y-13654819D02*
X17238095Y-13654819D01*
X17523809Y-13654819D02*
X17523809Y-12654819D01*
X17523809Y-12654819D02*
X17428571Y-12797676D01*
X17428571Y-12797676D02*
X17333333Y-12892914D01*
X17333333Y-12892914D02*
X17238095Y-12940533D01*
X21833333Y-9559580D02*
X21785714Y-9607200D01*
X21785714Y-9607200D02*
X21642857Y-9654819D01*
X21642857Y-9654819D02*
X21547619Y-9654819D01*
X21547619Y-9654819D02*
X21404762Y-9607200D01*
X21404762Y-9607200D02*
X21309524Y-9511961D01*
X21309524Y-9511961D02*
X21261905Y-9416723D01*
X21261905Y-9416723D02*
X21214286Y-9226247D01*
X21214286Y-9226247D02*
X21214286Y-9083390D01*
X21214286Y-9083390D02*
X21261905Y-8892914D01*
X21261905Y-8892914D02*
X21309524Y-8797676D01*
X21309524Y-8797676D02*
X21404762Y-8702438D01*
X21404762Y-8702438D02*
X21547619Y-8654819D01*
X21547619Y-8654819D02*
X21642857Y-8654819D01*
X21642857Y-8654819D02*
X21785714Y-8702438D01*
X21785714Y-8702438D02*
X21833333Y-8750057D01*
X22214286Y-8750057D02*
X22261905Y-8702438D01*
X22261905Y-8702438D02*
X22357143Y-8654819D01*
X22357143Y-8654819D02*
X22595238Y-8654819D01*
X22595238Y-8654819D02*
X22690476Y-8702438D01*
X22690476Y-8702438D02*
X22738095Y-8750057D01*
X22738095Y-8750057D02*
X22785714Y-8845295D01*
X22785714Y-8845295D02*
X22785714Y-8940533D01*
X22785714Y-8940533D02*
X22738095Y-9083390D01*
X22738095Y-9083390D02*
X22166667Y-9654819D01*
X22166667Y-9654819D02*
X22785714Y-9654819D01*
X25333333Y-13654819D02*
X25000000Y-13178628D01*
X24761905Y-13654819D02*
X24761905Y-12654819D01*
X24761905Y-12654819D02*
X25142857Y-12654819D01*
X25142857Y-12654819D02*
X25238095Y-12702438D01*
X25238095Y-12702438D02*
X25285714Y-12750057D01*
X25285714Y-12750057D02*
X25333333Y-12845295D01*
X25333333Y-12845295D02*
X25333333Y-12988152D01*
X25333333Y-12988152D02*
X25285714Y-13083390D01*
X25285714Y-13083390D02*
X25238095Y-13131009D01*
X25238095Y-13131009D02*
X25142857Y-13178628D01*
X25142857Y-13178628D02*
X24761905Y-13178628D01*
X25666667Y-12654819D02*
X26285714Y-12654819D01*
X26285714Y-12654819D02*
X25952381Y-13035771D01*
X25952381Y-13035771D02*
X26095238Y-13035771D01*
X26095238Y-13035771D02*
X26190476Y-13083390D01*
X26190476Y-13083390D02*
X26238095Y-13131009D01*
X26238095Y-13131009D02*
X26285714Y-13226247D01*
X26285714Y-13226247D02*
X26285714Y-13464342D01*
X26285714Y-13464342D02*
X26238095Y-13559580D01*
X26238095Y-13559580D02*
X26190476Y-13607200D01*
X26190476Y-13607200D02*
X26095238Y-13654819D01*
X26095238Y-13654819D02*
X25809524Y-13654819D01*
X25809524Y-13654819D02*
X25714286Y-13607200D01*
X25714286Y-13607200D02*
X25666667Y-13559580D01*
X28761905Y-13654819D02*
X28761905Y-12654819D01*
X28761905Y-12654819D02*
X29000000Y-12654819D01*
X29000000Y-12654819D02*
X29142857Y-12702438D01*
X29142857Y-12702438D02*
X29238095Y-12797676D01*
X29238095Y-12797676D02*
X29285714Y-12892914D01*
X29285714Y-12892914D02*
X29333333Y-13083390D01*
X29333333Y-13083390D02*
X29333333Y-13226247D01*
X29333333Y-13226247D02*
X29285714Y-13416723D01*
X29285714Y-13416723D02*
X29238095Y-13511961D01*
X29238095Y-13511961D02*
X29142857Y-13607200D01*
X29142857Y-13607200D02*
X29000000Y-13654819D01*
X29000000Y-13654819D02*
X28761905Y-13654819D01*
X30285714Y-13654819D02*
X29714286Y-13654819D01*
X30000000Y-13654819D02*
X30000000Y-12654819D01*
X30000000Y-12654819D02*
X29904762Y-12797676D01*
X29904762Y-12797676D02*
X29809524Y-12892914D01*
X29809524Y-12892914D02*
X29714286Y-12940533D01*
M02*
